<svg xmlns="http://www.w3.org/2000/svg" xmlns:xlink="http://www.w3.org/1999/xlink" width="583" zoomAndPan="magnify" viewBox="0 0 437.25 178.499995" height="238" preserveAspectRatio="xMidYMid meet" version="1.0"><defs><g/></defs><g fill="#000000" fill-opacity="1"><g transform="translate(36.951291, 126.733437)"><g><path d="M 0.898438 0 C 4.398438 0.539062 11.128906 1.078125 15.167969 1.078125 C 27.015625 1.078125 39.492188 -2.242188 39.492188 -17.054688 C 39.492188 -31.054688 28.453125 -34.015625 18.039062 -34.015625 C 14.628906 -34.015625 11.308594 -33.300781 7.898438 -33.300781 C 5.65625 -33.300781 3.410156 -33.929688 3.410156 -37.070312 C 3.410156 -41.828125 11.039062 -45.6875 17.414062 -45.6875 C 27.644531 -45.6875 32.492188 -42.632812 35.8125 -40.390625 L 35.8125 -59.417969 C 32.492188 -60.046875 28.722656 -60.496094 24.863281 -60.496094 C 7.359375 -60.496094 0.988281 -49.992188 0.988281 -40.390625 C 0.988281 -26.386719 14.71875 -25.582031 25.042969 -24.953125 C 31.324219 -24.683594 36.351562 -24.414062 36.351562 -20.644531 C 36.351562 -17.414062 32.132812 -13.824219 24.054688 -13.824219 C 18.308594 -13.824219 10.589844 -15.4375 0.898438 -20.105469 Z M 0.898438 0 "/></g></g></g><g fill="#00eb90" fill-opacity="1"><g transform="translate(32.98443, 122.766575)"><g><path d="M 0.898438 0 C 4.398438 0.539062 11.128906 1.078125 15.167969 1.078125 C 27.015625 1.078125 39.492188 -2.242188 39.492188 -17.054688 C 39.492188 -31.054688 28.453125 -34.015625 18.039062 -34.015625 C 14.628906 -34.015625 11.308594 -33.300781 7.898438 -33.300781 C 5.65625 -33.300781 3.410156 -33.929688 3.410156 -37.070312 C 3.410156 -41.828125 11.039062 -45.6875 17.414062 -45.6875 C 27.644531 -45.6875 32.492188 -42.632812 35.8125 -40.390625 L 35.8125 -59.417969 C 32.492188 -60.046875 28.722656 -60.496094 24.863281 -60.496094 C 7.359375 -60.496094 0.988281 -49.992188 0.988281 -40.390625 C 0.988281 -26.386719 14.71875 -25.582031 25.042969 -24.953125 C 31.324219 -24.683594 36.351562 -24.414062 36.351562 -20.644531 C 36.351562 -17.414062 32.132812 -13.824219 24.054688 -13.824219 C 18.308594 -13.824219 10.589844 -15.4375 0.898438 -20.105469 Z M 0.898438 0 "/></g></g></g><g fill="#000000" fill-opacity="1"><g transform="translate(81.837276, 126.733437)"><g><path d="M 1.347656 -30.785156 C 1.347656 -8.078125 9.695312 1.257812 17.863281 1.257812 C 26.027344 1.257812 30.066406 -6.910156 32.492188 -15.4375 L 33.839844 -15.4375 C 33.300781 -10.410156 32.222656 -5.117188 30.785156 0 L 47.929688 0 C 44.519531 -11.308594 42.8125 -20.285156 42.8125 -29.710938 C 42.8125 -39.132812 44.519531 -48.109375 47.929688 -59.417969 L 33.929688 -59.417969 L 35.632812 -46.941406 L 34.285156 -46.941406 C 32.582031 -58.699219 24.863281 -60.675781 20.375 -60.675781 C 9.066406 -60.675781 1.347656 -49.816406 1.347656 -30.785156 Z M 36.082031 -45.777344 C 38.863281 -45.777344 41.109375 -44.160156 41.109375 -40.660156 C 41.109375 -29.621094 19.386719 -13.554688 10.679688 -13.554688 C 7.898438 -13.554688 5.65625 -15.078125 5.65625 -18.578125 C 5.65625 -29.621094 27.464844 -45.777344 36.082031 -45.777344 Z M 36.082031 -45.777344 "/></g></g></g><g fill="#ff73a9" fill-opacity="1"><g transform="translate(77.870414, 122.766575)"><g><path d="M 1.347656 -30.785156 C 1.347656 -8.078125 9.695312 1.257812 17.863281 1.257812 C 26.027344 1.257812 30.066406 -6.910156 32.492188 -15.4375 L 33.839844 -15.4375 C 33.300781 -10.410156 32.222656 -5.117188 30.785156 0 L 47.929688 0 C 44.519531 -11.308594 42.8125 -20.285156 42.8125 -29.710938 C 42.8125 -39.132812 44.519531 -48.109375 47.929688 -59.417969 L 33.929688 -59.417969 L 35.632812 -46.941406 L 34.285156 -46.941406 C 32.582031 -58.699219 24.863281 -60.675781 20.375 -60.675781 C 9.066406 -60.675781 1.347656 -49.816406 1.347656 -30.785156 Z M 36.082031 -45.777344 C 38.863281 -45.777344 41.109375 -44.160156 41.109375 -40.660156 C 41.109375 -29.621094 19.386719 -13.554688 10.679688 -13.554688 C 7.898438 -13.554688 5.65625 -15.078125 5.65625 -18.578125 C 5.65625 -29.621094 27.464844 -45.777344 36.082031 -45.777344 Z M 36.082031 -45.777344 "/></g></g></g><g fill="#000000" fill-opacity="1"><g transform="translate(136.0487, 126.733437)"><g><path d="M 1.527344 0 L 18.847656 0 C 16.335938 -4.847656 15.347656 -10.320312 15.347656 -15.796875 C 15.347656 -30.425781 24.054688 -42.363281 33.390625 -42.363281 C 34.464844 -42.363281 35.542969 -42.273438 36.710938 -41.917969 L 36.710938 -59.417969 C 34.375 -60.046875 31.863281 -60.496094 30.785156 -60.496094 C 18.488281 -60.496094 18.488281 -41.648438 16.875 -32.851562 L 15.4375 -32.851562 L 19.117188 -59.417969 L 1.796875 -59.417969 C 5.207031 -48.109375 6.910156 -39.132812 6.910156 -29.710938 C 6.910156 -20.285156 5.117188 -11.847656 1.527344 0 Z M 1.527344 0 "/></g></g></g><g fill="#ffdc00" fill-opacity="1"><g transform="translate(132.081839, 122.766575)"><g><path d="M 1.527344 0 L 18.847656 0 C 16.335938 -4.847656 15.347656 -10.320312 15.347656 -15.796875 C 15.347656 -30.425781 24.054688 -42.363281 33.390625 -42.363281 C 34.464844 -42.363281 35.542969 -42.273438 36.710938 -41.917969 L 36.710938 -59.417969 C 34.375 -60.046875 31.863281 -60.496094 30.785156 -60.496094 C 18.488281 -60.496094 18.488281 -41.648438 16.875 -32.851562 L 15.4375 -32.851562 L 19.117188 -59.417969 L 1.796875 -59.417969 C 5.207031 -48.109375 6.910156 -39.132812 6.910156 -29.710938 C 6.910156 -20.285156 5.117188 -11.847656 1.527344 0 Z M 1.527344 0 "/></g></g></g><g fill="#000000" fill-opacity="1"><g transform="translate(177.697659, 126.733437)"><g><path d="M 0.179688 -75.394531 C 0.179688 -70.277344 4.578125 -66.777344 11.308594 -66.777344 C 17.953125 -66.777344 22.347656 -70.277344 22.347656 -75.394531 C 22.347656 -80.421875 17.953125 -83.832031 11.308594 -83.832031 C 4.578125 -83.832031 0.179688 -80.421875 0.179688 -75.394531 Z M 1.347656 0 L 20.734375 0 C 16.695312 -9.066406 14.988281 -18.847656 14.988281 -28.8125 C 14.988281 -39.851562 17.144531 -50.351562 20.734375 -59.417969 L 1.796875 -59.417969 C 5.746094 -50.351562 7.539062 -40.570312 7.539062 -30.605469 C 7.539062 -19.476562 5.207031 -9.695312 1.347656 0 Z M 1.347656 0 "/></g></g></g><g fill="#3f5ef4" fill-opacity="1"><g transform="translate(173.730797, 122.766575)"><g><path d="M 0.179688 -75.394531 C 0.179688 -70.277344 4.578125 -66.777344 11.308594 -66.777344 C 17.953125 -66.777344 22.347656 -70.277344 22.347656 -75.394531 C 22.347656 -80.421875 17.953125 -83.832031 11.308594 -83.832031 C 4.578125 -83.832031 0.179688 -80.421875 0.179688 -75.394531 Z M 1.347656 0 L 20.734375 0 C 16.695312 -9.066406 14.988281 -18.847656 14.988281 -28.8125 C 14.988281 -39.851562 17.144531 -50.351562 20.734375 -59.417969 L 1.796875 -59.417969 C 5.746094 -50.351562 7.539062 -40.570312 7.539062 -30.605469 C 7.539062 -19.476562 5.207031 -9.695312 1.347656 0 Z M 1.347656 0 "/></g></g></g><g fill="#000000" fill-opacity="1"><g transform="translate(235.520061, 126.733437)"><g><path d="M 0.898438 0 C 4.398438 0.539062 11.128906 1.078125 15.167969 1.078125 C 27.015625 1.078125 39.492188 -2.242188 39.492188 -17.054688 C 39.492188 -31.054688 28.453125 -34.015625 18.039062 -34.015625 C 14.628906 -34.015625 11.308594 -33.300781 7.898438 -33.300781 C 5.65625 -33.300781 3.410156 -33.929688 3.410156 -37.070312 C 3.410156 -41.828125 11.039062 -45.6875 17.414062 -45.6875 C 27.644531 -45.6875 32.492188 -42.632812 35.8125 -40.390625 L 35.8125 -59.417969 C 32.492188 -60.046875 28.722656 -60.496094 24.863281 -60.496094 C 7.359375 -60.496094 0.988281 -49.992188 0.988281 -40.390625 C 0.988281 -26.386719 14.71875 -25.582031 25.042969 -24.953125 C 31.324219 -24.683594 36.351562 -24.414062 36.351562 -20.644531 C 36.351562 -17.414062 32.132812 -13.824219 24.054688 -13.824219 C 18.308594 -13.824219 10.589844 -15.4375 0.898438 -20.105469 Z M 0.898438 0 "/></g></g></g><g fill="#ff73a9" fill-opacity="1"><g transform="translate(231.5532, 122.766575)"><g><path d="M 0.898438 0 C 4.398438 0.539062 11.128906 1.078125 15.167969 1.078125 C 27.015625 1.078125 39.492188 -2.242188 39.492188 -17.054688 C 39.492188 -31.054688 28.453125 -34.015625 18.039062 -34.015625 C 14.628906 -34.015625 11.308594 -33.300781 7.898438 -33.300781 C 5.65625 -33.300781 3.410156 -33.929688 3.410156 -37.070312 C 3.410156 -41.828125 11.039062 -45.6875 17.414062 -45.6875 C 27.644531 -45.6875 32.492188 -42.632812 35.8125 -40.390625 L 35.8125 -59.417969 C 32.492188 -60.046875 28.722656 -60.496094 24.863281 -60.496094 C 7.359375 -60.496094 0.988281 -49.992188 0.988281 -40.390625 C 0.988281 -26.386719 14.71875 -25.582031 25.042969 -24.953125 C 31.324219 -24.683594 36.351562 -24.414062 36.351562 -20.644531 C 36.351562 -17.414062 32.132812 -13.824219 24.054688 -13.824219 C 18.308594 -13.824219 10.589844 -15.4375 0.898438 -20.105469 Z M 0.898438 0 "/></g></g></g><g fill="#000000" fill-opacity="1"><g transform="translate(280.406046, 126.733437)"><g><path d="M 1.347656 -30.785156 C 1.347656 -8.078125 9.695312 1.257812 17.863281 1.257812 C 26.027344 1.257812 30.066406 -6.910156 32.492188 -15.4375 L 33.839844 -15.4375 C 33.300781 -10.410156 32.222656 -5.117188 30.785156 0 L 47.929688 0 C 44.519531 -11.308594 42.8125 -20.285156 42.8125 -29.710938 C 42.8125 -39.132812 44.519531 -48.109375 47.929688 -59.417969 L 33.929688 -59.417969 L 35.632812 -46.941406 L 34.285156 -46.941406 C 32.582031 -58.699219 24.863281 -60.675781 20.375 -60.675781 C 9.066406 -60.675781 1.347656 -49.816406 1.347656 -30.785156 Z M 36.082031 -45.777344 C 38.863281 -45.777344 41.109375 -44.160156 41.109375 -40.660156 C 41.109375 -29.621094 19.386719 -13.554688 10.679688 -13.554688 C 7.898438 -13.554688 5.65625 -15.078125 5.65625 -18.578125 C 5.65625 -29.621094 27.464844 -45.777344 36.082031 -45.777344 Z M 36.082031 -45.777344 "/></g></g></g><g fill="#ffdc00" fill-opacity="1"><g transform="translate(276.439184, 122.766575)"><g><path d="M 1.347656 -30.785156 C 1.347656 -8.078125 9.695312 1.257812 17.863281 1.257812 C 26.027344 1.257812 30.066406 -6.910156 32.492188 -15.4375 L 33.839844 -15.4375 C 33.300781 -10.410156 32.222656 -5.117188 30.785156 0 L 47.929688 0 C 44.519531 -11.308594 42.8125 -20.285156 42.8125 -29.710938 C 42.8125 -39.132812 44.519531 -48.109375 47.929688 -59.417969 L 33.929688 -59.417969 L 35.632812 -46.941406 L 34.285156 -46.941406 C 32.582031 -58.699219 24.863281 -60.675781 20.375 -60.675781 C 9.066406 -60.675781 1.347656 -49.816406 1.347656 -30.785156 Z M 36.082031 -45.777344 C 38.863281 -45.777344 41.109375 -44.160156 41.109375 -40.660156 C 41.109375 -29.621094 19.386719 -13.554688 10.679688 -13.554688 C 7.898438 -13.554688 5.65625 -15.078125 5.65625 -18.578125 C 5.65625 -29.621094 27.464844 -45.777344 36.082031 -45.777344 Z M 36.082031 -45.777344 "/></g></g></g><g fill="#000000" fill-opacity="1"><g transform="translate(334.617471, 126.733437)"><g><path d="M 1.527344 0 L 18.847656 0 C 16.335938 -4.847656 15.347656 -10.320312 15.347656 -15.796875 C 15.347656 -30.425781 24.054688 -42.363281 33.390625 -42.363281 C 34.464844 -42.363281 35.542969 -42.273438 36.710938 -41.917969 L 36.710938 -59.417969 C 34.375 -60.046875 31.863281 -60.496094 30.785156 -60.496094 C 18.488281 -60.496094 18.488281 -41.648438 16.875 -32.851562 L 15.4375 -32.851562 L 19.117188 -59.417969 L 1.796875 -59.417969 C 5.207031 -48.109375 6.910156 -39.132812 6.910156 -29.710938 C 6.910156 -20.285156 5.117188 -11.847656 1.527344 0 Z M 1.527344 0 "/></g></g></g><g fill="#3f5ef4" fill-opacity="1"><g transform="translate(330.650609, 122.766575)"><g><path d="M 1.527344 0 L 18.847656 0 C 16.335938 -4.847656 15.347656 -10.320312 15.347656 -15.796875 C 15.347656 -30.425781 24.054688 -42.363281 33.390625 -42.363281 C 34.464844 -42.363281 35.542969 -42.273438 36.710938 -41.917969 L 36.710938 -59.417969 C 34.375 -60.046875 31.863281 -60.496094 30.785156 -60.496094 C 18.488281 -60.496094 18.488281 -41.648438 16.875 -32.851562 L 15.4375 -32.851562 L 19.117188 -59.417969 L 1.796875 -59.417969 C 5.207031 -48.109375 6.910156 -39.132812 6.910156 -29.710938 C 6.910156 -20.285156 5.117188 -11.847656 1.527344 0 Z M 1.527344 0 "/></g></g></g><g fill="#000000" fill-opacity="1"><g transform="translate(376.266429, 126.733437)"><g><path d="M 0.179688 -75.394531 C 0.179688 -70.277344 4.578125 -66.777344 11.308594 -66.777344 C 17.953125 -66.777344 22.347656 -70.277344 22.347656 -75.394531 C 22.347656 -80.421875 17.953125 -83.832031 11.308594 -83.832031 C 4.578125 -83.832031 0.179688 -80.421875 0.179688 -75.394531 Z M 1.347656 0 L 20.734375 0 C 16.695312 -9.066406 14.988281 -18.847656 14.988281 -28.8125 C 14.988281 -39.851562 17.144531 -50.351562 20.734375 -59.417969 L 1.796875 -59.417969 C 5.746094 -50.351562 7.539062 -40.570312 7.539062 -30.605469 C 7.539062 -19.476562 5.207031 -9.695312 1.347656 0 Z M 1.347656 0 "/></g></g></g><g fill="#00eb90" fill-opacity="1"><g transform="translate(372.299567, 122.766575)"><g><path d="M 0.179688 -75.394531 C 0.179688 -70.277344 4.578125 -66.777344 11.308594 -66.777344 C 17.953125 -66.777344 22.347656 -70.277344 22.347656 -75.394531 C 22.347656 -80.421875 17.953125 -83.832031 11.308594 -83.832031 C 4.578125 -83.832031 0.179688 -80.421875 0.179688 -75.394531 Z M 1.347656 0 L 20.734375 0 C 16.695312 -9.066406 14.988281 -18.847656 14.988281 -28.8125 C 14.988281 -39.851562 17.144531 -50.351562 20.734375 -59.417969 L 1.796875 -59.417969 C 5.746094 -50.351562 7.539062 -40.570312 7.539062 -30.605469 C 7.539062 -19.476562 5.207031 -9.695312 1.347656 0 Z M 1.347656 0 "/></g></g></g><g fill="#000000" fill-opacity="1"><g transform="translate(203.05101, 122.766575)"><g><path d="M 1.886719 -25.3125 L 24.324219 -25.3125 L 24.324219 -31.953125 L 1.886719 -31.953125 Z M 1.886719 -25.3125 "/></g></g></g></svg>