<svg xmlns="http://www.w3.org/2000/svg" xmlns:xlink="http://www.w3.org/1999/xlink" width="578" zoomAndPan="magnify" viewBox="0 0 433.5 173.999997" height="232" preserveAspectRatio="xMidYMid meet" version="1.0"><defs><g/></defs><g fill="#00eb90" fill-opacity="1"><g transform="translate(32.801589, 123.068859)"><g><path d="M 0.898438 0 C 4.40625 0.539062 11.148438 1.078125 15.195312 1.078125 C 27.0625 1.078125 39.558594 -2.246094 39.558594 -17.082031 C 39.558594 -31.105469 28.5 -34.074219 18.070312 -34.074219 C 14.65625 -34.074219 11.328125 -33.355469 7.910156 -33.355469 C 5.664062 -33.355469 3.417969 -33.984375 3.417969 -37.128906 C 3.417969 -41.894531 11.058594 -45.761719 17.441406 -45.761719 C 27.691406 -45.761719 32.546875 -42.703125 35.871094 -40.457031 L 35.871094 -59.515625 C 32.546875 -60.144531 28.769531 -60.59375 24.902344 -60.59375 C 7.371094 -60.59375 0.988281 -50.078125 0.988281 -40.457031 C 0.988281 -26.433594 14.746094 -25.621094 25.082031 -24.992188 C 31.375 -24.722656 36.410156 -24.453125 36.410156 -20.679688 C 36.410156 -17.441406 32.1875 -13.84375 24.09375 -13.84375 C 18.339844 -13.84375 10.609375 -15.464844 0.898438 -20.136719 Z M 0.898438 0 "/></g></g></g><g fill="#ff73a9" fill-opacity="1"><g transform="translate(77.761449, 123.068859)"><g><path d="M 1.347656 -30.835938 C 1.347656 -8.089844 9.710938 1.257812 17.890625 1.257812 C 26.070312 1.257812 30.117188 -6.921875 32.546875 -15.464844 L 33.894531 -15.464844 C 33.355469 -10.429688 32.277344 -5.125 30.835938 0 L 48.007812 0 C 44.59375 -11.328125 42.882812 -20.316406 42.882812 -29.757812 C 42.882812 -39.199219 44.59375 -48.1875 48.007812 -59.515625 L 33.984375 -59.515625 L 35.691406 -47.019531 L 34.34375 -47.019531 C 32.636719 -58.796875 24.902344 -60.773438 20.40625 -60.773438 C 9.082031 -60.773438 1.347656 -49.898438 1.347656 -30.835938 Z M 36.140625 -45.851562 C 38.929688 -45.851562 41.175781 -44.234375 41.175781 -40.726562 C 41.175781 -29.667969 19.417969 -13.574219 10.699219 -13.574219 C 7.910156 -13.574219 5.664062 -15.105469 5.664062 -18.609375 C 5.664062 -29.667969 27.511719 -45.851562 36.140625 -45.851562 Z M 36.140625 -45.851562 "/></g></g></g><g fill="#ffdc00" fill-opacity="1"><g transform="translate(132.062098, 123.068859)"><g><path d="M 1.527344 0 L 18.878906 0 C 16.363281 -4.855469 15.375 -10.339844 15.375 -15.824219 C 15.375 -30.476562 24.09375 -42.433594 33.445312 -42.433594 C 34.523438 -42.433594 35.601562 -42.34375 36.769531 -41.984375 L 36.769531 -59.515625 C 34.433594 -60.144531 31.914062 -60.59375 30.835938 -60.59375 C 18.519531 -60.59375 18.519531 -41.714844 16.902344 -32.90625 L 15.464844 -32.90625 L 19.148438 -59.515625 L 1.796875 -59.515625 C 5.214844 -48.1875 6.921875 -39.199219 6.921875 -29.757812 C 6.921875 -20.316406 5.125 -11.867188 1.527344 0 Z M 1.527344 0 "/></g></g></g><g fill="#3f5ef4" fill-opacity="1"><g transform="translate(173.779604, 123.068859)"><g><path d="M 0.179688 -75.519531 C 0.179688 -70.394531 4.585938 -66.886719 11.328125 -66.886719 C 17.980469 -66.886719 22.386719 -70.394531 22.386719 -75.519531 C 22.386719 -80.554688 17.980469 -83.96875 11.328125 -83.96875 C 4.585938 -83.96875 0.179688 -80.554688 0.179688 -75.519531 Z M 1.347656 0 L 20.769531 0 C 16.722656 -9.082031 15.015625 -18.878906 15.015625 -28.859375 C 15.015625 -39.917969 17.171875 -50.4375 20.769531 -59.515625 L 1.796875 -59.515625 C 5.753906 -50.4375 7.550781 -40.636719 7.550781 -30.65625 C 7.550781 -19.507812 5.214844 -9.710938 1.347656 0 Z M 1.347656 0 "/></g></g></g><g fill="#000000" fill-opacity="1"><g transform="translate(200.842139, 123.068859)"><g><path d="M 1.886719 -30.386719 L 24.363281 -30.386719 L 24.363281 -36.949219 L 1.886719 -36.949219 Z M 1.886719 -30.386719 "/></g></g></g><g fill="#ff73a9" fill-opacity="1"><g transform="translate(231.697173, 123.068859)"><g><path d="M 0.898438 0 C 4.40625 0.539062 11.148438 1.078125 15.195312 1.078125 C 27.0625 1.078125 39.558594 -2.246094 39.558594 -17.082031 C 39.558594 -31.105469 28.5 -34.074219 18.070312 -34.074219 C 14.65625 -34.074219 11.328125 -33.355469 7.910156 -33.355469 C 5.664062 -33.355469 3.417969 -33.984375 3.417969 -37.128906 C 3.417969 -41.894531 11.058594 -45.761719 17.441406 -45.761719 C 27.691406 -45.761719 32.546875 -42.703125 35.871094 -40.457031 L 35.871094 -59.515625 C 32.546875 -60.144531 28.769531 -60.59375 24.902344 -60.59375 C 7.371094 -60.59375 0.988281 -50.078125 0.988281 -40.457031 C 0.988281 -26.433594 14.746094 -25.621094 25.082031 -24.992188 C 31.375 -24.722656 36.410156 -24.453125 36.410156 -20.679688 C 36.410156 -17.441406 32.1875 -13.84375 24.09375 -13.84375 C 18.339844 -13.84375 10.609375 -15.464844 0.898438 -20.136719 Z M 0.898438 0 "/></g></g></g><g fill="#ffdc00" fill-opacity="1"><g transform="translate(276.657033, 123.068859)"><g><path d="M 1.347656 -30.835938 C 1.347656 -8.089844 9.710938 1.257812 17.890625 1.257812 C 26.070312 1.257812 30.117188 -6.921875 32.546875 -15.464844 L 33.894531 -15.464844 C 33.355469 -10.429688 32.277344 -5.125 30.835938 0 L 48.007812 0 C 44.59375 -11.328125 42.882812 -20.316406 42.882812 -29.757812 C 42.882812 -39.199219 44.59375 -48.1875 48.007812 -59.515625 L 33.984375 -59.515625 L 35.691406 -47.019531 L 34.34375 -47.019531 C 32.636719 -58.796875 24.902344 -60.773438 20.40625 -60.773438 C 9.082031 -60.773438 1.347656 -49.898438 1.347656 -30.835938 Z M 36.140625 -45.851562 C 38.929688 -45.851562 41.175781 -44.234375 41.175781 -40.726562 C 41.175781 -29.667969 19.417969 -13.574219 10.699219 -13.574219 C 7.910156 -13.574219 5.664062 -15.105469 5.664062 -18.609375 C 5.664062 -29.667969 27.511719 -45.851562 36.140625 -45.851562 Z M 36.140625 -45.851562 "/></g></g></g><g fill="#3f5ef4" fill-opacity="1"><g transform="translate(330.957682, 123.068859)"><g><path d="M 1.527344 0 L 18.878906 0 C 16.363281 -4.855469 15.375 -10.339844 15.375 -15.824219 C 15.375 -30.476562 24.09375 -42.433594 33.445312 -42.433594 C 34.523438 -42.433594 35.601562 -42.34375 36.769531 -41.984375 L 36.769531 -59.515625 C 34.433594 -60.144531 31.914062 -60.59375 30.835938 -60.59375 C 18.519531 -60.59375 18.519531 -41.714844 16.902344 -32.90625 L 15.464844 -32.90625 L 19.148438 -59.515625 L 1.796875 -59.515625 C 5.214844 -48.1875 6.921875 -39.199219 6.921875 -29.757812 C 6.921875 -20.316406 5.125 -11.867188 1.527344 0 Z M 1.527344 0 "/></g></g></g><g fill="#00eb90" fill-opacity="1"><g transform="translate(372.675188, 123.068859)"><g><path d="M 0.179688 -75.519531 C 0.179688 -70.394531 4.585938 -66.886719 11.328125 -66.886719 C 17.980469 -66.886719 22.386719 -70.394531 22.386719 -75.519531 C 22.386719 -80.554688 17.980469 -83.96875 11.328125 -83.96875 C 4.585938 -83.96875 0.179688 -80.554688 0.179688 -75.519531 Z M 1.347656 0 L 20.769531 0 C 16.722656 -9.082031 15.015625 -18.878906 15.015625 -28.859375 C 15.015625 -39.917969 17.171875 -50.4375 20.769531 -59.515625 L 1.796875 -59.515625 C 5.753906 -50.4375 7.550781 -40.636719 7.550781 -30.65625 C 7.550781 -19.507812 5.214844 -9.710938 1.347656 0 Z M 1.347656 0 "/></g></g></g></svg>